<svg version="1.1" id="Layer_1" xmlns="http://www.w3.org/2000/svg" xmlns:xlink="http://www.w3.org/1999/xlink" x="0px" y="0px"
	 width="100%" viewBox="0 0 176 240" enable-background="new 0 0 176 240" xml:space="preserve">
<path fill="#000000" opacity="1.000000" stroke="none" 
	d="
M76.109398,38.501205 
	C77.368217,35.128017 80.219070,34.253963 82.732727,33.056953 
	C85.683632,31.651720 87.536011,32.823460 88.235962,37.258404 
	C89.086166,30.477011 93.212860,31.489510 96.636444,31.908895 
	C100.957939,32.438274 105.307175,33.431465 103.681931,40.468327 
	C106.961281,34.799122 110.525063,32.465466 115.786217,37.043900 
	C121.488953,42.006618 114.804337,44.729374 113.927734,49.320621 
	C118.760277,43.901653 123.183754,38.910023 127.647705,33.954876 
	C128.984192,32.471317 130.416763,31.072496 131.834579,29.664312 
	C136.904022,24.629250 139.179077,25.220840 141.164978,32.207775 
	C144.964630,45.575916 139.484833,60.275486 126.612480,63.502689 
	C126.006645,63.654575 125.488029,64.154343 124.408081,64.806580 
	C128.104416,73.684036 130.179199,83.056282 132.890381,92.247597 
	C135.243484,100.225060 137.767044,108.175400 139.598526,116.277153 
	C141.485001,124.622093 138.734695,132.457214 134.995041,139.770782 
	C133.408798,142.872940 133.512360,144.981979 135.226974,147.944275 
	C140.529236,157.104889 142.555206,167.034760 141.669418,177.681595 
	C140.249405,194.749634 139.243317,211.845673 134.289719,228.404922 
	C133.254227,231.866455 131.538773,233.682770 127.792648,234.076004 
	C117.766418,235.128387 116.358353,234.002914 115.608353,223.780563 
	C115.367531,220.498245 114.736061,217.244583 114.197868,213.361313 
	C100.902946,217.490234 87.854485,218.087006 74.296799,213.312073 
	C72.885582,218.168274 72.650238,222.903595 72.302025,227.589203 
	C72.042419,231.082443 71.180534,233.687119 67.053856,234.168961 
	C60.167068,234.973129 55.743195,233.787750 54.635658,229.854996 
	C48.806126,209.154861 43.508663,188.352524 46.654846,166.517654 
	C47.711185,159.186554 49.966717,152.237427 54.173546,146.082733 
	C55.697102,143.853729 55.746914,142.045059 54.433113,139.691284 
	C49.240501,130.388351 47.986382,120.621529 51.241280,110.324646 
	C55.997795,95.277405 59.215614,79.768875 64.985413,65.019920 
	C64.485825,64.582298 64.175987,64.144669 63.756172,63.967197 
	C49.335007,57.870674 43.892727,45.580353 49.075600,30.761068 
	C50.962379,25.366226 53.130867,24.714930 57.162369,28.942854 
	C62.903320,34.963524 68.295242,41.317024 73.835716,47.528828 
	C75.127083,48.976662 76.416267,50.426441 78.434341,52.692753 
	C77.487251,47.311993 76.745262,43.096508 76.109398,38.501205 
M111.393173,194.148727 
	C110.383774,190.642990 109.932297,186.969620 108.015350,183.738083 
	C107.317039,182.560883 106.999969,181.062241 108.610054,180.295639 
	C110.216652,179.530685 111.052963,180.874390 111.774727,181.974930 
	C113.067177,183.945663 113.737144,186.153656 114.247063,188.461761 
	C116.436562,198.372528 117.932205,208.394989 119.264053,218.446518 
	C119.457771,219.908478 119.294098,221.471405 120.885719,222.383072 
	C123.417084,223.832962 130.727402,222.617416 131.837463,220.521255 
	C135.179138,214.211075 134.093536,210.825821 128.299774,208.191483 
	C125.268028,206.812988 121.443565,206.700912 119.256454,203.217499 
	C122.475647,199.759583 126.469383,201.131180 130.107544,200.983826 
	C132.263855,200.896469 135.019485,202.374741 135.564789,198.651474 
	C136.018784,195.551727 136.037476,192.808044 132.411697,191.190536 
	C127.531509,189.013443 122.540657,187.193375 117.485764,185.508026 
	C116.072495,185.036835 114.241966,184.663589 114.709930,182.678406 
	C115.139748,180.855026 116.972847,180.952789 118.457664,181.039902 
	C122.776047,181.293274 127.088158,181.651337 131.404495,181.942291 
	C133.748337,182.100266 136.422333,183.388626 137.303970,179.505585 
	C138.102295,175.989563 137.217621,173.702255 133.756180,172.423462 
	C128.604248,170.520142 123.493958,168.504349 118.357788,166.557953 
	C116.879395,165.997681 114.524170,166.120010 114.823883,163.863068 
	C115.159393,161.336578 117.590523,161.904129 119.296867,161.968018 
	C123.618141,162.129898 127.929718,162.535019 132.249420,162.762146 
	C134.014511,162.854950 135.979614,162.573776 135.488571,160.184998 
	C134.600189,155.863388 133.376205,151.601013 129.824234,148.547241 
	C105.632988,169.247910 82.074356,168.458649 58.728790,147.605392 
	C54.760300,151.982925 52.893402,156.847809 52.053780,162.292999 
	C57.027409,163.787186 62.067219,160.951752 66.715950,164.386856 
	C62.917950,168.038483 58.350883,168.220032 54.525394,169.985947 
	C50.443184,171.870346 48.837639,175.206635 50.200790,180.199448 
	C51.369350,184.479538 54.743988,182.253006 57.258656,182.324066 
	C59.411625,182.384888 61.575645,182.019669 63.730495,182.061798 
	C65.081673,182.088211 66.400406,182.548355 66.479240,184.838684 
	C63.664219,187.203903 59.798180,187.881729 56.238483,188.784546 
	C51.167824,190.070572 50.865425,193.247543 51.364792,197.481216 
	C51.899448,202.014114 54.853848,201.829376 58.220638,201.870331 
	C60.944954,201.903473 64.160515,200.542557 66.531731,203.639008 
	C65.037682,206.302414 62.320221,206.416321 60.102135,207.223907 
	C54.333038,209.324326 52.348839,215.662140 56.479553,220.355728 
	C58.997929,223.217300 62.753399,221.535858 65.952545,221.552643 
	C68.334183,221.565170 68.584869,219.514008 68.868141,217.613037 
	C69.774315,211.531967 70.658897,205.444138 71.757607,199.396301 
	C72.766151,193.844864 73.402267,188.166611 75.945656,183.016052 
	C76.639969,181.610031 77.443642,179.523911 79.544678,180.533707 
	C81.419846,181.434937 80.283859,183.053268 79.681313,184.421677 
	C76.822510,190.914276 76.250839,197.918030 75.076141,204.799500 
	C74.579948,207.706268 75.634598,209.147476 78.244301,210.025040 
	C88.877411,213.600632 99.478088,213.411819 110.102859,209.988556 
	C112.733101,209.141098 113.902374,207.817810 113.151230,204.826523 
	C112.344154,201.612564 112.070648,198.264603 111.393173,194.148727 
M127.473747,116.027504 
	C114.495644,111.042358 100.966072,109.650208 87.246826,110.555290 
	C76.777626,111.245964 66.389732,112.801842 57.009106,118.155464 
	C54.691532,119.478127 53.115707,120.698547 53.591518,123.939278 
	C56.547829,144.074493 71.732468,157.677429 93.365456,159.288925 
	C111.566788,160.644791 129.267120,148.008286 134.442764,129.963287 
	C137.029388,120.944992 136.765564,120.371643 127.473747,116.027504 
M71.989632,108.371475 
	C92.172768,104.064354 111.995880,106.071281 132.467621,112.520279 
	C126.889465,107.613777 120.173935,107.265358 115.038620,103.870277 
	C115.525024,102.970886 115.612000,102.516876 115.845978,102.420769 
	C120.408844,100.546608 125.382904,102.433022 130.112442,100.871811 
	C130.580170,97.373764 128.843506,96.388123 125.564720,96.194260 
	C122.051880,95.986549 118.015678,97.630302 114.837540,94.168579 
	C117.240639,90.855164 120.952965,91.164383 123.852592,89.816032 
	C125.688347,88.962410 127.128586,88.151375 126.384598,85.764320 
	C125.685364,83.520821 124.233902,83.030777 122.124222,83.687225 
	C120.697021,84.131302 119.248413,84.677223 117.781082,84.782249 
	C115.484131,84.946678 112.270172,87.520744 111.085426,84.597984 
	C109.841927,81.530273 113.837967,81.089981 115.792374,79.966637 
	C124.733124,74.827782 124.936592,74.242416 119.501465,65.262573 
	C119.243080,64.835686 118.986519,64.404892 118.692192,64.002953 
	C113.665413,57.138042 108.044289,57.097832 103.219490,63.887226 
	C99.918671,68.532104 99.719666,68.185242 95.360497,64.683716 
	C85.061607,56.411064 71.665253,55.562851 66.983017,71.644493 
	C66.243530,74.184364 66.585197,75.784981 68.838379,77.056122 
	C71.592468,78.609871 74.328346,80.196686 77.051544,81.804024 
	C78.200813,82.482353 79.554779,83.229866 78.851242,84.868286 
	C78.158020,86.482727 76.679199,86.051178 75.377205,85.744057 
	C72.462959,85.056618 69.550987,84.358360 66.647057,83.628815 
	C64.666336,83.131210 63.527966,83.735565 62.990673,85.821121 
	C62.470966,87.838417 63.024311,89.028709 64.985825,89.647995 
	C66.890747,90.249428 68.774162,90.919151 70.680046,91.517395 
	C72.217636,92.000038 74.499428,91.999756 74.257599,94.184799 
	C73.982834,96.667458 71.556709,96.133904 69.826981,96.221741 
	C67.500870,96.339867 65.165825,96.277176 62.834759,96.304047 
	C60.972649,96.325500 59.401516,96.875786 59.526997,99.085632 
	C59.654282,101.327171 61.406891,101.573639 63.172344,101.494644 
	C65.165657,101.405449 67.156578,101.079140 69.144592,101.109978 
	C70.896362,101.137161 73.333298,100.778580 73.767044,103.015030 
	C74.243118,105.469788 71.672653,105.527550 70.066895,106.171623 
	C67.119705,107.353752 64.159004,108.502220 61.203938,109.664726 
	C64.646431,109.377655 67.907867,109.034515 71.989632,108.371475 
M135.650055,51.226219 
	C136.622162,48.988113 138.375641,46.604164 135.605423,44.558517 
	C132.758041,42.455875 128.950806,40.342312 126.039726,42.565762 
	C121.580360,45.971786 117.879028,50.468758 114.757652,55.213802 
	C121.577400,60.752735 123.728661,60.984215 129.865692,57.478096 
	C132.256271,56.112354 134.009109,54.221642 135.650055,51.226219 
M73.995041,54.106506 
	C70.856773,50.443718 67.733093,46.768299 64.574333,43.123272 
	C62.898487,41.189445 60.878963,41.048004 58.727520,42.241585 
	C56.329308,43.572075 53.021133,44.086521 52.613731,47.476532 
	C52.143112,51.392578 57.138035,56.903652 62.552525,58.894310 
	C67.721283,60.794628 70.539665,59.782726 73.995041,54.106506 
z"/>
<path fill="#000000" opacity="1.000000" stroke="none" 
	d="
M116.471802,141.200104 
	C115.658798,143.889359 114.725494,146.285904 111.879333,146.059891 
	C108.900719,145.823349 108.170128,143.182129 107.524559,140.725845 
	C106.535667,136.963348 106.950623,133.485229 109.820869,130.651947 
	C110.996048,129.491913 112.746399,129.274841 113.916756,130.355942 
	C116.988113,133.193085 117.557419,136.842346 116.471802,141.200104 
z"/>
<path fill="#000000" opacity="1.000000" stroke="none" 
	d="
M75.207649,129.896652 
	C79.937485,129.910843 80.396156,133.410233 80.963402,136.391144 
	C81.605568,139.765793 80.825951,143.078842 78.061607,145.402603 
	C76.134819,147.022308 74.365303,146.103210 73.000504,144.272919 
	C70.009094,140.261246 70.853775,133.607544 75.207649,129.896652 
z"/>
<path fill="#000000" opacity="1.000000" stroke="none" 
	d="
M110.623398,92.227501 
	C113.196564,94.725266 113.324333,97.144722 111.055679,99.401329 
	C109.207832,101.239342 106.970848,101.580574 104.790916,99.876053 
	C102.878136,98.380409 102.241516,96.300575 103.262863,94.121849 
	C104.753693,90.941620 107.326286,90.573082 110.623398,92.227501 
z"/>
<path fill="#000000" opacity="1.000000" stroke="none" 
	d="
M84.922508,99.943100 
	C81.535789,102.191528 78.849312,101.664474 77.228111,98.423454 
	C75.919655,95.807632 77.066299,93.601166 79.606163,92.276222 
	C81.379669,91.351074 83.180931,91.590607 84.630707,92.967529 
	C86.739525,94.970367 86.763565,97.261826 84.922508,99.943100 
z"/>
</svg>